<svg width="176" height="177" viewBox="0 0 176 177" fill="none" xmlns="http://www.w3.org/2000/svg">
<path fill-rule="evenodd" clip-rule="evenodd" d="M87.7335 22.5932C123.336 22.5932 152.198 51.455 152.198 87.0572C152.198 122.66 123.336 151.522 87.7335 151.522C52.1308 151.522 23.269 122.66 23.269 87.0572C23.269 51.455 52.1308 22.5932 87.7335 22.5932ZM87.7335 0C111.774 0 133.538 9.74428 149.292 25.4984C165.046 41.253 174.791 63.0169 174.791 87.0572C174.791 111.098 165.047 132.861 149.292 148.616C133.538 164.37 111.773 174.115 87.7335 174.115C63.6938 174.115 41.9287 164.37 26.1747 148.616C10.4206 132.861 0.675781 111.096 0.675781 87.0572C0.675781 63.0174 10.4206 41.253 26.1747 25.4984C41.9287 9.74483 63.6932 0 87.7335 0ZM147.72 27.071C132.369 11.7192 111.16 2.2238 87.7335 2.2238C64.3071 2.2238 43.0985 11.7192 27.7462 27.071C12.395 42.4227 2.89905 63.6319 2.89905 87.0578C2.89905 110.484 12.3945 131.693 27.7462 147.045C43.098 162.396 64.3066 171.892 87.7335 171.892C111.16 171.892 132.369 162.396 147.72 147.045C163.072 131.693 172.567 110.484 172.567 87.0578C172.567 63.6314 163.072 42.4222 147.72 27.071ZM22.164 110.893C22.3131 110.191 22.3608 109.477 22.3098 108.749L24.2156 108.865C24.2617 109.234 24.2682 109.616 24.2331 110.007C24.2277 110.09 24.1219 110.713 23.9098 111.878C24.5303 112.448 25.0318 113.162 25.4111 114.021C26.1429 115.679 26.2273 117.196 25.6649 118.567C25.1003 119.938 23.9333 121.014 22.1628 121.796C20.3973 122.576 18.8148 122.71 17.4198 122.201C16.0221 121.692 14.968 120.63 14.256 119.017C13.55 117.418 13.4798 115.933 14.0482 114.562C14.6139 113.193 15.7781 112.118 17.5437 111.339C18.4755 110.928 19.3542 110.696 20.178 110.644C20.8051 110.601 21.4684 110.684 22.164 110.893ZM21.7101 113.183C21.2557 113.05 20.7668 113.017 20.2373 113.082C19.7094 113.151 19.1431 113.316 18.538 113.583C17.2899 114.134 16.4792 114.819 16.1043 115.642C15.7315 116.464 15.7397 117.318 16.1311 118.205C16.5236 119.094 17.1501 119.679 18.0134 119.954C18.8779 120.233 19.9314 120.099 21.1773 119.548C22.4408 118.991 23.2657 118.297 23.6467 117.468C24.0309 116.638 24.0364 115.801 23.6642 114.958C23.5244 114.641 23.3408 114.368 23.115 114.135C23.0202 114.702 22.9949 115.25 23.035 115.775L21.4996 115.724C21.4333 114.901 21.5013 114.055 21.7101 113.183ZM10.7988 109.318L10.3093 106.98L16.5647 105.671C17.559 105.463 18.1949 105.299 18.4761 105.181C18.9283 104.982 19.261 104.669 19.4682 104.239C19.6776 103.805 19.7138 103.267 19.5789 102.622C19.4419 101.969 19.204 101.502 18.863 101.226C18.5221 100.95 18.1499 100.82 17.741 100.836C17.3321 100.851 16.6716 100.953 15.7579 101.144L9.3676 102.482L8.87868 100.144L14.9488 98.8735C16.3356 98.5835 17.3294 98.4399 17.9279 98.4465C18.5271 98.453 19.0587 98.583 19.5246 98.8389C19.99 99.0916 20.3962 99.4781 20.7481 99.9933C21.1006 100.511 21.373 101.223 21.5632 102.134C21.7934 103.233 21.8417 104.092 21.7046 104.712C21.5681 105.333 21.3313 105.851 20.992 106.267C20.6527 106.683 20.2729 106.986 19.8464 107.185C19.2172 107.477 18.2546 107.757 16.9621 108.027L10.7988 109.318ZM19.5882 84.3828L19.6682 86.9542L17.0163 88.0559L17.1638 92.7836L19.8782 93.6798L19.9566 96.2035L8.02575 91.9943L7.94686 89.4723L19.5882 84.3828ZM15.0485 88.8918L10.7369 90.6662L15.1494 92.1215L15.0485 88.8918ZM19.7182 82.8124L8.10638 81.4196L8.39082 79.0478L18.0238 80.2033L18.7282 74.3316L20.707 74.569L19.7182 82.8124ZM21.1329 72.7732L9.62855 70.1734L10.1553 67.8438L21.6591 70.4437L21.1329 72.7732ZM23.138 65.5115L13.858 62.3597L12.7349 65.6655L10.8476 65.0247L13.8569 56.1657L15.7441 56.8065L14.6259 60.0981L23.906 63.2499L23.138 65.5115ZM27.3833 55.668L22.95 53.436L14.9049 54.2269L16.1607 51.7329L21.5862 51.3421L18.6361 46.8166L19.8683 44.3697L24.0391 51.3108L28.4577 53.5357L27.3833 55.668ZM36.6222 41.7359L28.5405 33.1466L31.1458 30.6953L38.1976 35.1051L34.2066 27.8148L36.8179 25.358L44.9003 33.9479L43.2925 35.4603L36.9243 28.7039L41.5928 37.0592L39.9209 38.6323L31.8726 33.4563L38.2294 40.2241L36.6222 41.7359ZM55.931 26.5919L53.7757 27.9962L51.4571 26.3019L47.4935 28.8842L48.1381 31.6693L46.0217 33.0479L43.4208 20.6665L45.535 19.2896L55.931 26.5919ZM49.7195 25.0544L45.9631 22.2918L47.0117 26.8188L49.7195 25.0544ZM57.3282 25.9714L52.8444 15.0634L54.9822 14.1842L62.4769 19.6492L59.472 12.3392L61.5133 11.5L65.997 22.408L63.7902 23.3151L56.4216 17.9614L59.3695 25.1322L57.3282 25.9714ZM79 19.2331L76.4934 19.812L74.8972 17.4248L70.2879 18.4882L69.9365 21.3254L67.4754 21.8927L69.2853 9.371L71.7437 8.80367L79 19.2331ZM73.6945 15.656L71.1161 11.7719L70.5461 16.3834L73.6945 15.656ZM85.8901 14.7192L85.8276 12.7273L90.9484 12.5672L91.0947 17.2708C90.6134 17.7723 89.9047 18.2196 88.9696 18.6198C88.0367 19.0172 87.0851 19.2309 86.1138 19.2611C84.8816 19.2995 83.8006 19.0747 82.8683 18.5852C81.9386 18.0946 81.2266 17.3727 80.7355 16.4239C80.2443 15.4751 79.9812 14.4314 79.9456 13.2979C79.9072 12.0689 80.1313 10.9683 80.6148 9.99478C81.1005 9.02403 81.8295 8.26485 82.8041 7.72329C83.549 7.30725 84.482 7.08306 85.6067 7.04798C87.0692 7.00249 88.2236 7.27436 89.0655 7.86307C89.9053 8.45506 90.4616 9.28658 90.7313 10.3653L88.3743 10.8839C88.1917 10.3105 87.8646 9.86158 87.3954 9.53818C86.9294 9.21752 86.3533 9.06843 85.6676 9.0898C84.6305 9.12214 83.8143 9.47679 83.2234 10.157C82.632 10.8378 82.3552 11.8267 82.3957 13.1247C82.439 14.5268 82.7822 15.5683 83.424 16.2485C84.0686 16.9288 84.892 17.2543 85.8989 17.2231C86.3955 17.2078 86.8921 17.0932 87.3855 16.8827C87.8815 16.6722 88.302 16.4206 88.6528 16.129L88.6062 14.6331L85.8901 14.7192ZM93.5767 19.2342L94.9811 7.52432L103.649 8.56359L103.412 10.5424L97.1155 9.78759L96.8036 12.3874L102.659 13.0896L102.422 15.0684L96.5663 14.3662L96.1853 17.5394L102.711 18.3216L102.474 20.3004L93.5767 19.2342ZM104.679 20.8266L108.693 9.73661L112.056 10.954L111.307 19.237L116.008 12.3841L119.38 13.6043L115.367 24.6942L113.291 23.9433L116.443 15.2098L111.097 23.1496L108.939 22.3679L109.922 12.8495L106.755 21.5775L104.679 20.8266ZM117.759 25.8108L123.775 15.6664L131.284 20.1195L130.267 21.8335L124.812 18.5989L123.477 20.8518L128.549 23.8594L127.532 25.5735L122.46 22.5658L120.83 25.3147L126.483 28.6672L125.466 30.3812L117.759 25.8108ZM127.377 31.5986L134.923 22.5346L136.699 24.0129L135.373 33.1932L140.43 27.1187L142.127 28.5307L134.581 37.5947L132.747 36.0687L134.034 27.0523L129.074 33.0106L127.377 31.5986ZM138.265 41.5589L145.499 34.9461L143.142 32.3688L144.613 31.0236L150.926 37.9296L149.456 39.2742L147.111 36.7089L139.877 43.3217L138.265 41.5589ZM151.138 52.8522L152.304 54.8743C151.653 55.321 151.251 55.8105 151.093 56.3482C150.935 56.886 151.006 57.484 151.304 58.1417C151.618 58.8373 152.002 59.2961 152.457 59.5159C152.911 59.7352 153.337 59.7571 153.732 59.579C153.988 59.4633 154.169 59.2917 154.283 59.0621C154.393 58.8346 154.431 58.5041 154.394 58.0754C154.37 57.7816 154.265 57.1359 154.084 56.1339C153.851 54.8441 153.839 53.8706 154.051 53.2118C154.347 52.2865 154.922 51.6315 155.775 51.2467C156.323 50.9995 156.909 50.9216 157.525 51.0137C158.143 51.108 158.707 51.3898 159.221 51.8595C159.734 52.3293 160.176 52.9739 160.548 53.7994C161.155 55.1434 161.315 56.2907 161.023 57.239C160.731 58.1894 160.097 58.9042 159.114 59.3899L158.057 57.2472C158.57 56.9035 158.879 56.5264 158.985 56.1142C159.091 55.702 159.008 55.1911 158.735 54.586C158.452 53.96 158.1 53.5286 157.681 53.2934C157.411 53.1416 157.136 53.1268 156.856 53.2534C156.601 53.3685 156.431 53.5746 156.349 53.8706C156.239 54.2483 156.298 55.0201 156.523 56.1865C156.751 57.3519 156.842 58.2475 156.804 58.8702C156.765 59.4967 156.58 60.0558 156.246 60.5497C155.912 61.0436 155.406 61.4443 154.728 61.7501C154.112 62.0275 153.457 62.119 152.765 62.0187C152.072 61.9184 151.454 61.6164 150.911 61.1088C150.366 60.6018 149.883 59.8799 149.462 58.9464C148.849 57.5876 148.691 56.4036 148.99 55.3917C149.286 54.3815 150.004 53.5363 151.138 52.8522ZM153.135 68.2977L157.899 66.9032L163.24 60.8348L164.024 63.5141L160.326 67.5029L165.57 68.797L166.341 71.4259L158.555 69.1999L153.807 70.59L153.135 68.2977ZM158.889 75.2766L159.294 77.5749C158.53 77.7734 157.985 78.0957 157.653 78.5473C157.321 78.999 157.183 79.585 157.238 80.3047C157.295 81.066 157.501 81.6284 157.853 81.9902C158.205 82.3514 158.598 82.517 159.03 82.4846C159.31 82.4633 159.538 82.363 159.723 82.1865C159.905 82.0105 160.054 81.7129 160.165 81.2963C160.243 81.0123 160.365 80.3699 160.536 79.3657C160.758 78.0749 161.08 77.1551 161.503 76.6086C162.097 75.8395 162.861 75.4208 163.794 75.3501C164.394 75.3046 164.971 75.4317 165.519 75.7283C166.068 76.0286 166.502 76.4852 166.824 77.1025C167.146 77.7197 167.341 78.4761 167.41 79.3789C167.521 80.849 167.279 81.9825 166.681 82.7741C166.083 83.5683 165.242 84.0227 164.153 84.1439L163.89 81.7688C164.49 81.6213 164.909 81.3719 165.15 81.0206C165.39 80.6692 165.487 80.1611 165.437 79.4984C165.385 78.8143 165.202 78.2881 164.888 77.9236C164.686 77.6884 164.433 77.581 164.126 77.604C163.847 77.6248 163.617 77.7608 163.438 78.0113C163.206 78.3286 162.999 79.0741 162.812 80.2471C162.628 81.4201 162.408 82.2933 162.159 82.865C161.908 83.4406 161.544 83.9032 161.061 84.2535C160.579 84.6037 159.966 84.8071 159.225 84.863C158.551 84.914 157.905 84.7764 157.288 84.4453C156.671 84.1148 156.193 83.6198 155.856 82.9571C155.517 82.2944 155.31 81.4508 155.233 80.4302C155.12 78.9437 155.376 77.7761 156.002 76.9276C156.627 76.0813 157.59 75.532 158.889 75.2766ZM155.729 90.0342L165.502 90.7747L165.766 87.2929L167.753 87.4431L167.046 96.773L165.059 96.6228L165.321 93.1564L155.548 92.4164L155.729 90.0342ZM155.126 97.6632L166.618 100.315L164.655 108.822L162.712 108.374L164.139 102.195L161.587 101.605L160.261 107.352L158.319 106.904L159.645 101.158L156.531 100.439L155.053 106.843L153.111 106.395L155.126 97.6632ZM152.726 108.645L163.432 113.593L161.931 116.84L153.743 115.385L160.168 120.656L158.664 123.911L147.958 118.963L148.884 116.96L157.316 120.847L149.863 114.842L150.826 112.758L160.224 114.552L151.8 110.649L152.726 108.645ZM95.789 44.9935C92.7304 44.3056 89.5495 43.9416 86.2832 43.9416C83.0173 43.9416 79.8359 44.3056 76.7773 44.9935C77.8714 45.8744 79.0263 46.5387 80.2788 47.0107C82.0318 47.6717 84.0007 47.9677 86.2826 47.9677C88.5651 47.9677 90.534 47.6712 92.2869 47.0107C93.54 46.5387 94.6949 45.8744 95.789 44.9935ZM65.2976 54.5525C65.6528 54.1973 66.0146 53.846 66.3818 53.5001C69.1872 50.8564 72.3417 48.4769 75.6355 46.4143C75.2946 46.1397 74.9592 45.847 74.6286 45.5351C69.6071 46.9416 64.9561 49.2345 60.8544 52.2344C62.3366 53.0808 63.8171 53.8536 65.2976 54.5525ZM74.0086 57.8156C74.5052 56.8986 75.0255 55.9854 75.5681 55.0776C76.8415 52.9459 78.2408 50.8378 79.7581 48.7576L79.6386 48.7132C78.806 48.3991 78.0134 48.0149 77.2531 47.5522C73.8234 49.6428 70.5329 52.0886 67.6289 54.8255C67.4425 55.0009 67.2573 55.1785 67.0742 55.3561C69.3862 56.3554 71.6977 57.1759 74.0086 57.8156ZM85.3716 59.5099V49.7755C84.0309 49.7289 82.7833 49.5771 81.6092 49.3063C79.9807 51.506 78.4831 53.7424 77.1276 56.0106C76.677 56.7648 76.2429 57.5223 75.8247 58.2821C79.0088 59.0336 82.1908 59.4436 85.3716 59.5099ZM96.7439 58.2854C96.3251 57.524 95.8899 56.7659 95.4387 56.0106C94.0832 53.7424 92.5867 51.5054 90.9577 49.3063C89.7836 49.5771 88.5354 49.7289 87.1952 49.7755V59.5104C90.3761 59.4452 93.5592 59.038 96.7439 58.2854ZM105.491 55.3545C105.309 55.1763 105.124 55.0004 104.937 54.8249C102.033 52.0886 98.7435 49.6428 95.3132 47.5517C94.5529 48.0143 93.7609 48.3986 92.9283 48.7126L92.8082 48.757C94.3249 50.8372 95.7249 52.9454 96.9982 55.0771C97.5414 55.9865 98.0621 56.9002 98.5598 57.8183C100.87 57.1787 103.18 56.3575 105.491 55.3545ZM111.7 52.2262C107.601 49.2306 102.954 46.9405 97.9372 45.5356C97.6072 45.8475 97.2717 46.1402 96.9302 46.4148C100.225 48.4775 103.378 50.857 106.183 53.5006C106.55 53.846 106.911 54.1962 107.265 54.5503C108.744 53.8498 110.222 53.0747 111.7 52.2262ZM86.2832 42.1174C98.693 42.1174 109.928 47.1482 118.06 55.2804C120.373 57.5925 122.434 60.1562 124.2 62.9248H122.019C120.473 60.6407 118.715 58.5128 116.771 56.5697C115.661 55.4586 114.489 54.4089 113.263 53.4239L112.933 53.6152C111.487 54.456 110.04 55.2273 108.592 55.9305C110.482 57.9784 112.155 60.1611 113.531 62.4583L113.81 62.9254H111.686C110.336 60.752 108.7 58.6833 106.859 56.7402C104.382 57.8496 101.904 58.7584 99.4248 59.4655C99.9461 60.4905 100.438 61.5199 100.901 62.5548L101.066 62.9254H99.0745C98.6201 61.9266 98.1378 60.9329 97.6275 59.9429C94.1517 60.7997 90.6743 61.2596 87.1952 61.3281V62.9259H85.3716V61.3275C81.8931 61.2579 78.4162 60.7947 74.9416 59.9402C74.4307 60.9307 73.9473 61.9261 73.4923 62.9259H71.4998L71.6654 62.5554C72.1286 61.5194 72.6213 60.4883 73.1437 59.4622C70.6634 58.7546 68.1841 57.8479 65.7054 56.7418C63.8648 58.6849 62.2302 60.7531 60.8802 62.9259H58.7567L59.0357 62.4589C60.4099 60.1633 62.0817 57.9811 63.9705 55.9349C62.5152 55.2306 61.0605 54.4582 59.6058 53.6163L59.2916 53.4338C58.0698 54.416 56.9023 55.4635 55.7951 56.5708C53.8519 58.5139 52.0935 60.6418 50.5483 62.9259H48.3667C50.1333 60.1567 52.1938 57.5931 54.5058 55.2816C62.6386 47.1483 73.8733 42.1174 86.2832 42.1174ZM95.789 129.122C92.7304 129.81 89.5495 130.174 86.2832 130.174C83.0173 130.174 79.8359 129.81 76.7773 129.122C77.8714 128.241 79.0263 127.577 80.2788 127.105C82.0318 126.444 84.0007 126.148 86.2826 126.148C88.5651 126.148 90.534 126.444 92.2869 127.105C93.54 127.577 94.6949 128.241 95.789 129.122ZM65.2976 119.563C65.6528 119.918 66.0146 120.27 66.3818 120.616C69.1872 123.259 72.3417 125.639 75.6355 127.701C75.2946 127.976 74.9592 128.269 74.6286 128.58C69.6071 127.174 64.9561 124.881 60.8544 121.881C62.3366 121.035 63.8171 120.262 65.2976 119.563ZM74.0086 116.3C74.5052 117.218 75.0255 118.13 75.5681 119.038C76.8415 121.17 78.2408 123.278 79.7581 125.358L79.6386 125.402C78.806 125.716 78.0134 126.101 77.2531 126.564C73.8234 124.473 70.5329 122.028 67.6289 119.291C67.4425 119.115 67.2573 118.938 67.0742 118.759C69.3862 117.76 71.6977 116.94 74.0086 116.3ZM85.3716 114.606V124.34C84.0309 124.386 82.7833 124.538 81.6092 124.809C79.9807 122.61 78.4831 120.373 77.1276 118.104C76.677 117.351 76.2429 116.594 75.8247 115.833C79.0088 115.081 82.1908 114.672 85.3716 114.606ZM96.7439 115.83C96.3251 116.592 95.8899 117.349 95.4387 118.105C94.0832 120.373 92.5867 122.61 90.9577 124.81C89.7836 124.539 88.5354 124.387 87.1952 124.341V114.606C90.3761 114.67 93.5592 115.078 96.7439 115.83ZM105.491 118.761C105.309 118.939 105.124 119.115 104.937 119.291C102.033 122.027 98.7435 124.473 95.3132 126.564C94.5529 126.102 93.7609 125.716 92.9283 125.402L92.8082 125.358C94.3249 123.278 95.7249 121.169 96.9982 119.038C97.5414 118.129 98.0621 117.215 98.5598 116.297C100.87 116.937 103.18 117.758 105.491 118.761ZM111.7 121.889C107.601 124.885 102.954 127.174 97.9372 128.58C97.6072 128.268 97.2717 127.975 96.9302 127.701C100.225 125.639 103.378 123.259 106.183 120.615C106.55 120.27 106.911 119.92 107.265 119.566C108.744 120.266 110.222 121.041 111.7 121.889ZM86.2832 131.998C98.693 131.998 109.928 126.968 118.06 118.835C120.373 116.523 122.434 113.96 124.2 111.191H122.019C120.473 113.475 118.715 115.603 116.771 117.546C115.661 118.656 114.489 119.707 113.263 120.692L112.933 120.5C111.487 119.659 110.04 118.888 108.592 118.185C110.482 116.138 112.155 113.954 113.531 111.657L113.81 111.19H111.686C110.336 113.364 108.7 115.432 106.859 117.376C104.382 116.267 101.904 115.357 99.4248 114.649C99.9461 113.625 100.438 112.595 100.901 111.56L101.066 111.19H99.0745C98.6201 112.188 98.1378 113.182 97.6275 114.172C94.1517 113.315 90.6743 112.855 87.1952 112.787V111.189H85.3716V112.787C81.8931 112.857 78.4162 113.32 74.9416 114.175C74.4307 113.184 73.9473 112.188 73.4923 111.189H71.4998L71.6654 111.56C72.1286 112.596 72.6213 113.627 73.1437 114.653C70.6634 115.36 68.1841 116.267 65.7054 117.373C63.8648 115.43 62.2302 113.362 60.8802 111.19H58.7567L59.0357 111.657C60.4099 113.952 62.0817 116.134 63.9705 118.181C62.5152 118.885 61.0605 119.657 59.6058 120.499L59.2916 120.681C58.0698 119.699 56.9023 118.652 55.7951 117.545C53.8519 115.602 52.0935 113.474 50.5483 111.19H48.3667C50.1333 113.959 52.1938 116.522 54.5058 118.834C62.6386 126.968 73.8733 131.998 86.2832 131.998ZM33.5883 67.1471H59.0757V76.8777H53.0752V97.1655H59.0757V106.895H33.5883V97.1655H39.5893V76.8777H33.5883V67.1471ZM120.085 76.4233H121.404C124.8 76.4233 127.578 79.1667 127.578 82.5197V91.8754C127.578 95.2283 124.799 97.9723 121.404 97.9723H120.085C116.689 97.9723 113.91 95.2283 113.91 91.8754V82.5197C113.91 79.1667 116.688 76.4233 120.085 76.4233ZM120.744 107.605C128.08 107.605 141.878 105.416 141.878 87.1981C141.878 68.9801 128.079 66.7914 120.744 66.7914C113.409 66.7914 99.6101 68.9801 99.6101 87.1981C99.6101 105.416 113.408 107.605 120.744 107.605ZM88.9866 70.6558C85.7076 67.8126 81.4557 67.2299 76.3711 66.8747C70.9988 66.4992 61.0572 69.901 61.0572 78.3604C61.0572 86.8199 65.8754 89.2163 70.9172 90.9194C76.5022 92.8056 80.4076 93.4792 84.9901 95.2322C85.7345 95.5172 86.646 96.1448 86.6625 96.9413C86.714 99.363 79.8666 98.8883 76.3021 97.9981C73.3679 97.2658 69.8943 94.0603 69.1006 92.3764H61.5769V106.982H69.8943V103.668C73.3876 106.467 78.0156 107.338 82.3716 107.704C89.896 108.336 98.4063 104.097 98.4063 95.5594C98.4063 87.0221 91.2082 83.9279 88.7772 83.1737C84.2096 81.7567 79.1864 80.6972 74.5601 78.9557C73.5981 78.5939 72.9053 78.0003 73.033 77.2466C73.3882 75.1582 79.25 75.6592 82.2116 76.4178C84.8936 77.1052 87.4277 78.7847 88.9855 81.3357H97.303V67.8537H88.9855V70.6558H88.9866ZM69.1012 92.3758L69.1631 93.255C69.0458 93.0539 69.0283 92.7584 69.1012 92.3758Z" fill="#535F6C"/>
<path d="M32.5034 143.516L34.2349 141.519L44.4796 138.943L47.2439 141.339L41.698 147.736L42.8847 148.765L41.0277 150.907L39.841 149.878L38.2098 151.759L35.735 149.614L37.3662 147.732L32.5034 143.516ZM42.5839 142.065L36.9655 143.633L39.3968 145.741L42.5839 142.065ZM55.8584 150.094L50.7317 147.023L49.3734 149.291C49.7368 149.181 50.1617 149.167 50.6479 149.25C51.1341 149.333 51.6073 149.512 52.0674 149.788C52.889 150.28 53.4566 150.873 53.7703 151.567C54.0949 152.268 54.206 152.989 54.1036 153.732C54.0012 154.474 53.7433 155.19 53.3299 155.881C52.5621 157.162 51.5904 157.965 50.4146 158.287C49.2454 158.599 48.0035 158.361 46.689 157.574C45.8126 157.049 45.1398 156.445 44.6707 155.762C44.2081 155.068 43.9623 154.348 43.9333 153.601C43.9043 152.854 44.0834 152.121 44.4705 151.4L47.2146 153.044C47.0769 153.423 47.0651 153.802 47.1793 154.183C47.3 154.553 47.5794 154.87 48.0176 155.132C48.5325 155.441 49.0143 155.506 49.4631 155.328C49.9119 155.151 50.3004 154.788 50.6285 154.24C50.95 153.703 51.0646 153.214 50.9724 152.771C50.8801 152.329 50.582 151.957 50.078 151.655C49.7056 151.432 49.3431 151.342 48.9905 151.383C48.6445 151.414 48.3446 151.555 48.0908 151.804L45.3795 150.18L49.6612 143.033L57.3349 147.629L55.8584 150.094ZM56.1338 154.812C56.9141 152.759 57.9227 151.291 59.1596 150.409C60.4085 149.531 61.9163 149.428 63.6829 150.1C65.4495 150.771 66.5021 151.847 66.8408 153.328C67.1914 154.814 66.9765 156.584 66.1962 158.637C65.4068 160.714 64.3877 162.191 63.1388 163.069C61.9019 163.951 60.4001 164.056 58.6335 163.385C56.8669 162.714 55.8083 161.635 55.4577 160.149C55.119 158.668 55.3444 156.889 56.1338 154.812ZM63.1882 157.493C63.6464 156.288 63.8667 155.313 63.8491 154.568C63.836 153.812 63.4177 153.277 62.5941 152.964C61.7704 152.651 61.1026 152.773 60.5904 153.33C60.0829 153.875 59.6 154.75 59.1418 155.955C58.8333 156.767 58.6247 157.46 58.516 158.033C58.4119 158.595 58.4396 159.097 58.599 159.54C58.7749 159.976 59.1494 160.302 59.7223 160.52C60.2953 160.738 60.7862 160.74 61.1952 160.527C61.6206 160.306 61.9809 159.951 62.276 159.462C62.5757 158.961 62.8797 158.305 63.1882 157.493ZM67.9049 159.241C68.3229 157.085 69.0658 155.467 70.1338 154.386C71.2142 153.308 72.6822 152.948 74.5375 153.308C76.3929 153.668 77.614 154.548 78.2008 155.95C78.8002 157.354 78.8909 159.134 78.473 161.29C78.0502 163.471 77.2985 165.101 76.2181 166.179C75.1501 167.26 73.6884 167.621 71.8331 167.261C69.9777 166.901 68.7504 166.02 68.151 164.616C67.5641 163.214 67.4821 161.423 67.9049 159.241ZM75.3138 160.678C75.5593 159.411 75.6097 158.413 75.4651 157.683C75.3229 156.94 74.8194 156.484 73.9544 156.317C73.0894 156.149 72.4521 156.383 72.0427 157.019C71.6357 157.643 71.3095 158.588 71.0641 159.854C70.8988 160.706 70.8117 161.424 70.8026 162.008C70.796 162.579 70.9091 163.069 71.1419 163.478C71.3897 163.878 71.8145 164.136 72.4163 164.252C73.018 164.369 73.5021 164.287 73.8686 164.007C74.25 163.717 74.5443 163.305 74.7515 162.773C74.9612 162.229 75.1486 161.53 75.3138 160.678ZM80.3236 157.861L80.4768 154.819L85.7758 155.086L85.0726 169.051L81.6674 168.88L82.2175 157.956L80.3236 157.861ZM95.9 168.828C95.3288 168.891 94.841 168.777 94.4367 168.488C94.0436 168.184 93.8199 167.785 93.7655 167.29C93.7098 166.782 93.8408 166.337 94.1586 165.955C94.4891 165.572 94.9399 165.349 95.5111 165.287C96.0696 165.225 96.5454 165.346 96.9384 165.65C97.3441 165.952 97.5749 166.357 97.6306 166.865C97.685 167.36 97.5469 167.799 97.2165 168.182C96.8973 168.551 96.4585 168.767 95.9 168.828ZM95.049 161.079C94.4778 161.141 93.9901 161.028 93.5857 160.738C93.1927 160.435 92.969 160.035 92.9146 159.54C92.8589 159.033 92.9899 158.588 93.3076 158.206C93.6381 157.823 94.0889 157.6 94.6601 157.537C95.2186 157.476 95.6944 157.597 96.0875 157.901C96.4932 158.203 96.7239 158.608 96.7797 159.116C96.8341 159.611 96.696 160.05 96.3655 160.433C96.0464 160.802 95.6075 161.017 95.049 161.079ZM105.158 164.475C105.471 164.018 105.613 163.807 105.584 163.842C106.473 162.484 107.161 161.382 107.648 160.536C108.147 159.687 108.527 158.841 108.787 157.998C109.048 157.156 109.076 156.405 108.872 155.746C108.717 155.246 108.481 154.892 108.162 154.683C107.843 154.474 107.452 154.441 106.989 154.585C106.525 154.728 106.214 155.019 106.055 155.455C105.905 155.876 105.928 156.404 106.124 157.038L103.105 157.973C102.808 156.928 102.76 155.994 102.959 155.171C103.171 154.343 103.567 153.659 104.149 153.118C104.742 152.573 105.46 152.171 106.301 151.91C107.753 151.461 108.96 151.495 109.922 152.013C110.896 152.526 111.569 153.381 111.939 154.576C112.343 155.882 112.273 157.233 111.73 158.631C111.183 160.017 110.385 161.454 109.335 162.942L114.275 161.412L115.063 163.956L105.877 166.799L105.158 164.475ZM114.501 156.764C113.519 154.8 113.122 153.064 113.311 151.556C113.511 150.043 114.456 148.864 116.147 148.019C117.838 147.174 119.342 147.129 120.661 147.883C121.992 148.631 123.148 149.988 124.13 151.952C125.123 153.94 125.52 155.69 125.32 157.203C125.131 158.711 124.191 159.887 122.501 160.732C120.81 161.577 119.3 161.625 117.969 160.877C116.65 160.123 115.494 158.752 114.501 156.764ZM121.251 153.391C120.675 152.237 120.107 151.415 119.547 150.923C118.982 150.421 118.305 150.366 117.517 150.76C116.729 151.154 116.366 151.728 116.429 152.482C116.486 153.224 116.803 154.172 117.379 155.326C117.767 156.103 118.136 156.725 118.484 157.194C118.826 157.65 119.215 157.97 119.649 158.153C120.088 158.319 120.582 158.265 121.131 157.991C121.679 157.717 122.013 157.357 122.133 156.912C122.259 156.449 122.242 155.944 122.082 155.395C121.916 154.836 121.64 154.167 121.251 153.391ZM123.488 148.119L121.751 145.617L126.11 142.591L134.084 154.077L131.283 156.022L125.046 147.037L123.488 148.119ZM133.613 144.843C132.294 145.177 131.177 144.837 130.259 143.825C129.796 143.314 129.508 142.73 129.395 142.074C129.274 141.408 129.372 140.707 129.688 139.973C129.996 139.228 130.543 138.5 131.328 137.788C132.113 137.077 132.886 136.608 133.648 136.383C134.41 136.141 135.117 136.112 135.767 136.298C136.41 136.474 136.962 136.817 137.425 137.328C137.889 137.839 138.169 138.395 138.266 138.996C138.372 139.589 138.321 140.179 138.111 140.765C138.845 140.548 139.546 140.533 140.215 140.719C140.876 140.896 141.467 141.273 141.991 141.851C142.599 142.522 142.957 143.258 143.062 144.059C143.159 144.85 143.03 145.64 142.675 146.427C142.329 147.205 141.802 147.916 141.092 148.56C140.382 149.203 139.619 149.663 138.8 149.939C137.992 150.207 137.198 150.254 136.42 150.08C135.634 149.897 134.936 149.469 134.327 148.797C133.795 148.211 133.474 147.58 133.362 146.906C133.242 146.222 133.326 145.534 133.613 144.843ZM135.404 139.833C135.053 139.445 134.669 139.25 134.253 139.247C133.838 139.227 133.446 139.384 133.077 139.718C132.708 140.053 132.509 140.432 132.479 140.855C132.459 141.27 132.624 141.672 132.976 142.059C133.311 142.428 133.69 142.619 134.114 142.631C134.53 142.633 134.918 142.471 135.277 142.145C135.637 141.819 135.831 141.445 135.861 141.021C135.891 140.598 135.739 140.201 135.404 139.833ZM136.821 143.848C136.376 144.251 136.128 144.7 136.077 145.195C136.017 145.68 136.18 146.135 136.566 146.561C136.926 146.959 137.354 147.165 137.851 147.18C138.357 147.187 138.837 146.984 139.291 146.573C139.745 146.161 139.984 145.712 140.008 145.225C140.041 144.729 139.878 144.283 139.518 143.885C139.14 143.469 138.703 143.262 138.206 143.265C137.718 143.259 137.256 143.454 136.821 143.848Z" fill="#535F6C"/>
</svg>
